<svg width="47" height="121" viewBox="0 0 47 121" fill="none" xmlns="http://www.w3.org/2000/svg">
<path d="M19.2516 120.136L19.3891 120.415H19.7H27.01H27.3171L27.456 120.141C31.6143 111.937 37.8586 104.281 46.2041 97.1757L46.38 97.026V96.795V83.875V83.1469L45.7005 83.4083C42.7335 84.5495 39.9356 85.8625 37.3074 87.3477C35.086 88.5595 32.9535 89.861 30.91 91.2522V1.08496V0.584961H30.41H16.47H15.97V1.08496V91.0837C13.9138 89.6916 11.7247 88.3897 9.40305 87.1778C6.88688 85.6919 4.14534 84.379 1.17949 83.2383L0.5 82.977V83.705V96.795V97.026L0.675877 97.1757C9.02055 104.28 15.207 111.935 19.2516 120.136Z" fill="#F2F2F2" stroke="#1A1A1A"/>
</svg>
