<svg width="40" height="40" viewBox="0 0 40 40" fill="none" xmlns="http://www.w3.org/2000/svg">
<path d="M17.9775 3.65396C15.6237 4.57797 15.166 7.41601 15.1006 8.60402C15.1006 8.67002 15.1006 8.73602 15.1006 8.86803C15.166 10.716 16.4083 12.3661 18.1737 12.9601C18.2391 12.9601 18.3698 13.0261 18.4352 13.0261C19.4814 13.4881 20.3314 14.2141 20.9852 15.0721C21.116 15.2701 21.0506 15.6001 20.8545 15.7321C20.7891 15.7981 20.6583 15.8641 20.5275 15.7981C20.3968 15.7981 20.3314 15.7321 20.2006 15.6661C19.1545 14.2141 17.5198 13.4221 15.8198 13.3561L15.7544 13.3561C13.9237 13.1581 12.1583 13.2901 10.3929 13.7521C8.62748 14.2801 7.05824 15.4021 6.07747 16.9201C4.96593 18.5042 4.76977 20.4842 5.55439 22.2662C6.33901 24.3122 8.56209 24.9062 9.80441 25.0382C9.86979 25.1042 10.0006 25.1042 10.0659 25.1042C12.1583 25.1042 14.0544 23.7842 14.839 21.8042C14.839 21.7382 14.839 21.6722 14.9044 21.6722C15.2967 20.8142 15.8198 20.0882 16.5391 19.4942C16.7352 19.2962 16.9967 19.2962 17.1929 19.4942C17.3237 19.6922 17.3237 20.0222 17.1275 20.1542C15.8852 21.2102 15.166 22.7942 15.166 24.3782L15.166 24.4442C14.9698 26.2923 15.1006 28.1403 15.5583 29.8563C16.0814 31.6383 17.1275 33.2223 18.6968 34.2784C20.2006 35.3344 22.2275 35.5324 23.9929 34.8064C26.6083 33.6844 26.8045 30.3183 26.8699 29.3283L26.8699 29.2623C26.7391 27.5463 25.6276 26.0283 23.9276 25.5662C23.8622 25.5662 23.7314 25.5002 23.666 25.5002C22.0314 24.8402 20.7237 23.5202 20.1352 21.8702C20.0698 21.6062 20.2006 21.3422 20.4622 21.2762C20.7237 21.1442 20.9852 21.2762 21.0506 21.5402C21.7045 23.5862 23.7314 24.9722 26.0853 25.1042L26.1506 25.1042C27.9814 25.3022 29.7468 25.1042 31.5122 24.6422C33.2776 24.1802 34.8468 23.0582 35.8276 21.5402C36.9391 19.9562 37.1353 17.9101 36.3507 16.1941C35.6968 14.4121 33.9314 13.6861 32.5584 13.4221C32.493 13.4221 32.3622 13.4221 32.2314 13.4221C29.943 13.2901 27.7853 14.6761 26.9353 16.9201C26.8045 17.1841 26.6737 17.4481 26.5429 17.6461C25.7583 18.8342 24.6468 19.6922 23.3391 20.0882C23.0775 20.1542 22.8814 20.0222 22.7506 19.7582C22.6852 19.4942 22.8814 19.2302 23.0775 19.1642C25.1699 18.5702 26.6737 16.4581 26.7391 14.0161L26.8045 13.9501C26.9353 12.1681 26.8045 10.32 26.3468 8.53802C25.8891 6.756 24.7776 5.23798 23.2083 4.18196C21.7045 3.05995 19.6775 2.86195 17.9775 3.65396Z" fill="#DF582E"/>
<path fill-rule="evenodd" clip-rule="evenodd" d="M15.1004 8.6043C15.1658 7.41628 15.6235 4.57825 17.9773 3.65424C19.6774 2.86223 21.7043 3.06023 23.2081 4.18224C24.7774 5.23826 25.8889 6.75628 26.3466 8.5383C26.635 9.66118 26.7936 10.8103 26.8388 11.9525C26.8653 12.6231 26.8527 13.2912 26.8043 13.9504L26.7389 14.0164C26.7149 14.915 26.496 15.769 26.1247 16.519C26.1116 16.5456 26.0982 16.572 26.0847 16.5983C25.989 16.7844 25.8837 16.9639 25.7697 17.1358C25.6076 17.3801 25.4277 17.6091 25.2319 17.82C24.6738 18.4213 23.9867 18.8763 23.2147 19.123C23.1779 19.1348 23.141 19.146 23.1038 19.1568C23.095 19.1594 23.0862 19.1619 23.0774 19.1644C23.0719 19.1663 23.0664 19.1683 23.0609 19.1704C22.8704 19.2452 22.6869 19.5018 22.7504 19.7584C22.8812 20.0224 23.0774 20.1545 23.3389 20.0885C23.3391 20.0884 23.3394 20.0883 23.3396 20.0882C23.3543 20.0838 23.369 20.0793 23.3837 20.0747C23.5258 20.0304 23.6655 19.9805 23.8028 19.9254C24.2782 19.7345 24.7234 19.4799 25.1313 19.1688C25.6731 18.7555 26.1491 18.2425 26.5428 17.6464C26.6735 17.4484 26.8043 17.1844 26.9351 16.9204C27.1779 16.2793 27.5275 15.7082 27.9564 15.2225C27.977 15.1993 27.9977 15.1762 28.0186 15.1533C28.3894 14.7476 28.8166 14.4041 29.2833 14.1323C29.3098 14.1168 29.3364 14.1016 29.3632 14.0866C29.5673 13.9724 29.7786 13.8717 29.9958 13.7854C30.6954 13.5072 31.4558 13.3776 32.2313 13.4224L32.5582 13.4224C33.9313 13.6864 35.6967 14.4124 36.3505 16.1944C37.1351 17.9104 36.939 19.9565 35.8274 21.5405C34.8467 23.0585 33.2774 24.1805 31.512 24.6425C30.5461 24.8953 29.5803 25.069 28.6037 25.1421C27.7953 25.2026 26.9796 25.1942 26.1505 25.1045L26.0851 25.1045C25.4096 25.0666 24.7611 24.9255 24.1642 24.6951C24.1141 24.6758 24.0645 24.6559 24.0152 24.6353C23.9858 24.6231 23.9565 24.6106 23.9274 24.5979C23.8389 24.5593 23.7517 24.5187 23.6658 24.4762C23.229 24.2597 22.8273 23.9923 22.4719 23.6806C22.237 23.4745 22.0224 23.249 21.8314 23.006C21.5093 22.5962 21.2542 22.1365 21.0821 21.6359C21.0716 21.6053 21.0614 21.5746 21.0515 21.5436C21.0511 21.5426 21.0508 21.5415 21.0504 21.5405C20.9851 21.2765 20.7235 21.1445 20.462 21.2765C20.2992 21.3175 20.1871 21.4353 20.1414 21.5819C20.1229 21.6413 20.1153 21.7054 20.1195 21.771C20.1209 21.7924 20.1236 21.8139 20.1275 21.8354C20.1296 21.8471 20.1322 21.8588 20.135 21.8705C20.3451 22.4593 20.6467 23.0062 21.0221 23.496C21.2173 23.7507 21.4326 23.9901 21.6652 24.2119C21.6653 24.212 21.6655 24.2121 21.6656 24.2122C21.6685 24.215 21.6714 24.2178 21.6744 24.2206C22.2459 24.7632 22.922 25.2002 23.6658 25.5005C23.6985 25.5005 23.7476 25.517 23.7966 25.5335C23.8456 25.55 23.8947 25.5665 23.9274 25.5665C24.7601 25.7928 25.4516 26.2725 25.9558 26.9046C25.9647 26.9158 25.9735 26.927 25.9822 26.9382C26.0175 26.9833 26.0518 27.0292 26.0851 27.0758C26.1073 27.1069 26.1291 27.1383 26.1505 27.17C26.3889 27.5238 26.5736 27.9162 26.6978 28.3324C26.7873 28.632 26.8454 28.9438 26.8697 29.2626L26.8697 29.3286L26.8677 29.3585C26.8002 30.3847 26.5824 33.6957 23.9928 34.8066C22.2274 35.5327 20.2004 35.3347 18.6966 34.2786C17.1273 33.2226 16.0812 31.6386 15.5581 29.8566C15.2759 28.7985 15.118 27.6902 15.0843 26.5627C15.0674 25.9944 15.082 25.4212 15.1282 24.8471C15.1285 24.8443 15.1287 24.8415 15.1289 24.8387C15.1395 24.7074 15.1518 24.5759 15.1658 24.4445L15.1658 24.3785C15.1658 23.6414 15.3215 22.9044 15.6132 22.2205C15.6265 22.1894 15.6401 22.1583 15.6539 22.1274C15.6678 22.0964 15.682 22.0655 15.6964 22.0347C15.7328 21.9571 15.771 21.8804 15.8109 21.8045C16.1329 21.1923 16.5685 20.6353 17.1019 20.1762C17.1104 20.1689 17.1188 20.1617 17.1273 20.1545C17.1428 20.1441 17.157 20.1324 17.1701 20.1197C17.3227 19.9713 17.3132 19.6769 17.1927 19.4944C17.0262 19.3264 16.8126 19.301 16.6319 19.4182C16.6051 19.4356 16.579 19.4561 16.5539 19.4798C16.5488 19.4846 16.5438 19.4894 16.5389 19.4944C16.1401 19.8238 15.8016 20.1938 15.5122 20.6043C15.2798 20.9342 15.079 21.2902 14.9043 21.6725C14.8389 21.6725 14.8389 21.7385 14.8389 21.8045C14.4443 22.8002 13.7686 23.629 12.9282 24.207C12.8411 24.2669 12.7523 24.3241 12.6618 24.3785C12.6244 24.401 12.5867 24.423 12.5488 24.4445C12.3567 24.5535 12.1578 24.6501 11.953 24.7334C11.3623 24.974 10.7237 25.1045 10.0658 25.1045C10.0004 25.1045 9.86962 25.1045 9.80423 25.0385C8.56192 24.9065 6.33883 24.3125 5.55421 22.2665C4.76959 20.4845 4.96575 18.5044 6.07729 16.9204C7.05806 15.4024 8.6273 14.2804 10.3927 13.7524C11.4092 13.4864 12.4257 13.3297 13.4546 13.2825C14.2127 13.2478 14.9776 13.2724 15.7543 13.3564L15.8196 13.3564C16.5325 13.384 17.2338 13.5394 17.8851 13.8175C17.9413 13.8415 17.9972 13.8664 18.0526 13.8922C18.0931 13.9111 18.1334 13.9305 18.1735 13.9503C18.1969 13.9619 18.2201 13.9736 18.2433 13.9855C18.3079 14.0186 18.3718 14.0529 18.435 14.0885C19.0966 14.4609 19.6883 14.9717 20.1631 15.6152C20.1756 15.6322 20.1881 15.6492 20.2004 15.6664C20.2015 15.6669 20.2025 15.6674 20.2035 15.668C20.2373 15.6851 20.2666 15.7022 20.294 15.7182C20.3709 15.763 20.4316 15.7984 20.5274 15.7984C20.6581 15.8644 20.7889 15.7984 20.8543 15.7324C21.044 15.6047 21.1114 15.2918 20.9973 15.0923C20.9934 15.0855 20.9893 15.0789 20.9851 15.0724C20.9668 15.0485 20.9484 15.0246 20.9299 15.0009C20.8512 14.9003 20.7698 14.8015 20.6857 14.7049C20.634 14.6455 20.5812 14.5869 20.5274 14.5292C20.1884 14.1654 19.8083 13.8354 19.387 13.5519C19.2252 13.4431 19.0574 13.3411 18.8835 13.2467C18.883 13.2464 18.8825 13.2462 18.882 13.2459C18.8785 13.244 18.875 13.2421 18.8715 13.2402C18.73 13.1638 18.5845 13.0924 18.435 13.0264C18.4023 13.0264 18.3533 13.0099 18.3043 12.9934C18.2552 12.9769 18.2062 12.9604 18.1735 12.9604C17.2755 12.6582 16.5128 12.0828 15.9716 11.3471C15.9478 11.3147 15.9244 11.2821 15.9015 11.2491C15.8735 11.209 15.8463 11.1684 15.8196 11.1274C15.7974 11.0931 15.7756 11.0586 15.7543 11.0237C15.5831 10.7438 15.442 10.4453 15.3351 10.1335C15.197 9.73033 15.1159 9.30484 15.1004 8.8683L15.1004 8.6043ZM12.0732 10.2116C11.9919 9.81016 11.9426 9.39878 11.9278 8.98056L11.9258 8.92445L11.9258 8.517L11.9306 8.42984C11.9749 7.62408 12.1479 6.21567 12.7623 4.78071C13.3775 3.34404 14.5586 1.62182 16.7238 0.736597C19.4277 -0.485168 22.6241 -0.177308 25.0419 1.58999C27.1819 3.05022 28.7638 5.18814 29.4215 7.74856C29.6545 8.65601 29.816 9.57189 29.9132 10.4846C30.685 10.2936 31.4912 10.2103 32.312 10.2477L32.8606 10.2477L33.1576 10.3048C34.8392 10.6282 38.0105 11.681 39.2867 14.9836C40.4846 17.7055 40.1513 20.8683 38.4615 23.3132C37.0388 25.487 34.8121 27.0604 32.3158 27.7137C31.5339 27.9183 30.7377 28.0821 29.9254 28.193C29.9773 28.4669 30.014 28.7435 30.0352 29.0213L30.0443 29.1418L30.0443 29.4333L30.0374 29.5378C30.0362 29.5558 30.035 29.5752 30.0336 29.5959C29.9987 30.1362 29.9063 31.5635 29.3862 33.0601C28.8417 34.6273 27.6814 36.6787 25.2444 37.7241L25.2224 37.7336L25.2002 37.7427C22.4977 38.8541 19.3336 38.5908 16.8988 36.8953C14.645 35.3691 13.2104 33.13 12.512 30.7507L12.5009 30.7128L12.4907 30.6747C12.2616 29.8157 12.1004 28.9359 12.0054 28.0457C11.3806 28.1985 10.7307 28.2792 10.0658 28.2792C10.0651 28.2792 10.0639 28.2792 10.0621 28.2792C10.0245 28.2795 9.73757 28.2823 9.4083 28.2269C9.32198 28.2124 9.1783 28.186 8.99895 28.1333C7.3158 27.869 3.9765 26.9076 2.61888 23.4772C1.43112 20.7175 1.73707 17.6152 3.44337 15.1475C4.86884 12.9695 7.07365 11.4315 9.48302 10.7109L9.53573 10.6951L9.58896 10.6812C10.4141 10.4652 11.2413 10.3087 12.0732 10.2116Z" fill="black"/>
<path d="M16.0727 5.2416C13.7189 6.16562 13.2612 9.00365 13.1958 10.1917C13.1958 10.2577 13.1958 10.3237 13.1958 10.4557C13.2612 12.3037 14.5035 13.9537 16.2689 14.5477C16.3343 14.5477 16.465 14.6137 16.5304 14.6137C17.5766 15.0757 18.4266 15.8017 19.0804 16.6598C19.2112 16.8578 19.1458 17.1878 18.9497 17.3198C18.8843 17.3858 18.7535 17.4518 18.6227 17.3858C18.492 17.3858 18.4266 17.3198 18.2958 17.2538C17.2497 15.8017 15.615 15.0097 13.915 14.9437L13.8497 14.9437C12.0189 14.7457 10.2535 14.8777 8.48809 15.3397C6.7227 15.8677 5.15345 16.9898 4.17268 18.5078C3.06114 20.0918 2.86498 22.0718 3.6496 23.8538C4.43422 25.8999 6.65731 26.4939 7.89962 26.6259C7.96501 26.6919 8.09578 26.6919 8.16116 26.6919C10.2535 26.6919 12.1496 25.3719 12.9343 23.3918C12.9343 23.3258 12.9343 23.2598 12.9996 23.2598C13.392 22.4018 13.915 21.6758 14.6343 21.0818C14.8304 20.8838 15.092 20.8838 15.2881 21.0818C15.4189 21.2798 15.4189 21.6098 15.2227 21.7418C13.9804 22.7978 13.2612 24.3819 13.2612 25.9659L13.2612 26.0319C13.065 27.8799 13.1958 29.7279 13.6535 31.4439C14.1766 33.226 15.2227 34.81 16.792 35.866C18.2958 36.922 20.3228 37.12 22.0881 36.394C24.7035 35.272 24.8997 31.906 24.9651 30.9159L24.9651 30.8499C24.8343 29.1339 23.7228 27.6159 22.0228 27.1539C21.9574 27.1539 21.8266 27.0879 21.7612 27.0879C20.1266 26.4279 18.8189 25.1079 18.2304 23.4578C18.1651 23.1938 18.2958 22.9298 18.5574 22.8638C18.8189 22.7318 19.0804 22.8638 19.1458 23.1278C19.7997 25.1739 21.8266 26.5599 24.1805 26.6919L24.2459 26.6919C26.0766 26.8899 27.842 26.6919 29.6074 26.2299C31.3728 25.7679 32.942 24.6459 33.9228 23.1278C35.0344 21.5438 35.2305 19.4978 34.4459 17.7818C33.792 15.9997 32.0267 15.2737 30.6536 15.0097C30.5882 15.0097 30.4574 15.0097 30.3266 15.0097C28.0382 14.8777 25.8805 16.2637 25.0305 18.5078C24.8997 18.7718 24.7689 19.0358 24.6382 19.2338C23.8535 20.4218 22.742 21.2798 21.4343 21.6758C21.1728 21.7418 20.9766 21.6098 20.8458 21.3458C20.7805 21.0818 20.9766 20.8178 21.1728 20.7518C23.2651 20.1578 24.7689 18.0458 24.8343 15.6037L24.8997 15.5377C25.0305 13.7557 24.8997 11.9077 24.442 10.1257C23.9843 8.34365 22.8728 6.82562 21.3035 5.76961C19.7997 4.64759 17.7727 4.44959 16.0727 5.2416Z" fill="#DF582E"/>
<path fill-rule="evenodd" clip-rule="evenodd" d="M13.1959 10.1915C13.2613 9.00344 13.7189 6.16541 16.0728 5.2414C17.7728 4.44939 19.7997 4.64739 21.3036 5.7694C22.8728 6.82542 23.9844 8.34343 24.4421 10.1255C24.7305 11.2483 24.8891 12.3974 24.9342 13.5397C24.9607 14.2102 24.9481 14.8784 24.8998 15.5375L24.8344 15.6035C24.8103 16.5022 24.5915 17.3561 24.2202 18.1062C24.207 18.1327 24.1937 18.1592 24.1802 18.1855C24.0844 18.3716 23.9792 18.5511 23.8651 18.723C23.703 18.9673 23.5231 19.1962 23.3274 19.4072C22.7693 20.0085 22.0821 20.4634 21.3102 20.7102C21.2734 20.7219 21.2364 20.7332 21.1993 20.744C21.1905 20.7466 21.1817 20.7491 21.1728 20.7516C21.1673 20.7534 21.1619 20.7554 21.1564 20.7576C20.9659 20.8324 20.7823 21.089 20.8459 21.3456C20.9767 21.6096 21.1728 21.7416 21.4344 21.6756C21.4346 21.6755 21.4348 21.6755 21.4351 21.6754C21.4498 21.6709 21.4645 21.6664 21.4791 21.6619C21.6212 21.6175 21.761 21.5677 21.8983 21.5126C22.3737 21.3217 22.8189 21.0671 23.2267 20.756C23.7685 20.3427 24.2445 19.8297 24.6382 19.2336C24.769 19.0356 24.8998 18.7716 25.0305 18.5076C25.2734 17.8664 25.623 17.2953 26.0519 16.8097C26.0724 16.7864 26.0931 16.7633 26.114 16.7405C26.4849 16.3348 26.9121 15.9913 27.3787 15.7194C27.4052 15.704 27.4319 15.6888 27.4586 15.6738C27.6628 15.5596 27.8741 15.4589 28.0913 15.3725C28.7909 15.0944 29.5513 14.9648 30.3267 15.0095L30.6536 15.0095C32.0267 15.2735 33.7921 15.9995 34.446 17.7816C35.2306 19.4976 35.0344 21.5436 33.9229 23.1276C32.9421 24.6456 31.3729 25.7677 29.6075 26.2297C28.6416 26.4824 27.6757 26.6562 26.6991 26.7293C25.8908 26.7898 25.075 26.7813 24.2459 26.6917L24.1805 26.6917C23.5051 26.6538 22.8565 26.5127 22.2596 26.2823C22.2096 26.263 22.1599 26.243 22.1106 26.2225C22.0812 26.2102 22.052 26.1977 22.0228 26.185C21.9344 26.1465 21.8471 26.1059 21.7613 26.0633C21.3245 25.8468 20.9227 25.5795 20.5674 25.2677C20.3325 25.0617 20.1179 24.8362 19.9269 24.5931C19.6047 24.1833 19.3497 23.7236 19.1776 23.2231C19.167 23.1925 19.1568 23.1617 19.1469 23.1308C19.1466 23.1297 19.1462 23.1287 19.1459 23.1276C19.0805 22.8636 18.819 22.7316 18.5574 22.8636C18.3947 22.9047 18.2826 23.0224 18.2369 23.1691C18.2184 23.2284 18.2107 23.2925 18.215 23.3582C18.2164 23.3795 18.219 23.401 18.223 23.4226C18.2251 23.4342 18.2276 23.4459 18.2305 23.4576C18.4405 24.0465 18.7421 24.5933 19.1175 25.0831C19.3128 25.3379 19.528 25.5773 19.7607 25.7991C19.7608 25.7992 19.7609 25.7993 19.761 25.7994C19.764 25.8022 19.7669 25.805 19.7699 25.8078C20.3413 26.3503 21.0175 26.7873 21.7613 27.0877C21.794 27.0877 21.843 27.1042 21.8921 27.1207C21.9411 27.1372 21.9901 27.1537 22.0228 27.1537C22.8555 27.38 23.547 27.8596 24.0512 28.4918C24.0601 28.5029 24.0689 28.5141 24.0777 28.5253C24.1129 28.5705 24.1472 28.6164 24.1805 28.663C24.2028 28.694 24.2246 28.7254 24.2459 28.7572C24.4843 29.111 24.669 29.5034 24.7933 29.9196C24.8827 30.2191 24.9409 30.531 24.9652 30.8497L24.9652 30.9157L24.9632 30.9457C24.8957 31.9719 24.6778 35.2828 22.0882 36.3938C20.3228 37.1198 18.2959 36.9218 16.792 35.8658C15.2228 34.8098 14.1766 33.2258 13.6536 31.4437C13.3714 30.3857 13.2134 29.2774 13.1798 28.1499C13.1629 27.5816 13.1775 27.0084 13.2237 26.4343C13.2239 26.4315 13.2241 26.4287 13.2244 26.4259C13.235 26.2945 13.2473 26.1631 13.2613 26.0317L13.2613 25.9657C13.2613 25.2286 13.417 24.4915 13.7087 23.8077C13.7219 23.7765 13.7355 23.7455 13.7493 23.7146C13.7632 23.6836 13.7774 23.6526 13.7919 23.6218C13.8283 23.5443 13.8665 23.4675 13.9064 23.3916C14.2284 22.7794 14.664 22.2225 15.1974 21.7634C15.2058 21.7561 15.2143 21.7488 15.2228 21.7416C15.2382 21.7312 15.2525 21.7196 15.2655 21.7069C15.4181 21.5584 15.4087 21.264 15.2882 21.0816C15.1217 20.9135 14.9081 20.8881 14.7273 21.0054C14.7005 21.0228 14.6744 21.0433 14.6493 21.067C14.6443 21.0717 14.6393 21.0766 14.6343 21.0816C14.2355 21.411 13.897 21.7809 13.6077 22.1915C13.3752 22.5213 13.1745 22.8774 12.9997 23.2596C12.9343 23.2596 12.9343 23.3256 12.9343 23.3916C12.5397 24.3874 11.8641 25.2162 11.0237 25.7942C10.9366 25.8541 10.8477 25.9113 10.7572 25.9657C10.7199 25.9881 10.6822 26.0101 10.6443 26.0317C10.4522 26.1406 10.2532 26.2372 10.0485 26.3206C9.45776 26.5611 8.81919 26.6917 8.16123 26.6917C8.09584 26.6917 7.96508 26.6917 7.89969 26.6257C6.65737 26.4937 4.43429 25.8997 3.64967 23.8536C2.86505 22.0716 3.06121 20.0916 4.17275 18.5076C5.15352 16.9895 6.72276 15.8675 8.48816 15.3395C9.50463 15.0735 10.5211 14.9169 11.5501 14.8697C12.3082 14.8349 13.0731 14.8595 13.8497 14.9435L13.9151 14.9435C14.6279 14.9712 15.3293 15.1265 15.9806 15.4046C16.0368 15.4286 16.0926 15.4536 16.1481 15.4794C16.1886 15.4983 16.2289 15.5176 16.269 15.5375C16.2923 15.549 16.3156 15.5608 16.3388 15.5727C16.4033 15.6057 16.4672 15.6401 16.5305 15.6757C17.192 16.048 17.7837 16.5589 18.2586 17.2024C18.2711 17.2193 18.2835 17.2364 18.2959 17.2536C18.2969 17.2541 18.298 17.2546 18.299 17.2551C18.3327 17.2723 18.3621 17.2894 18.3894 17.3053C18.4664 17.3502 18.5271 17.3856 18.6228 17.3856C18.7536 17.4516 18.8844 17.3856 18.9497 17.3196C19.1395 17.1919 19.2069 16.879 19.0927 16.6794C19.0889 16.6727 19.0848 16.666 19.0805 16.6595C19.0623 16.6356 19.0439 16.6118 19.0253 16.588C18.9467 16.4874 18.8653 16.3887 18.7812 16.2921C18.7294 16.2327 18.6766 16.1741 18.6228 16.1163C18.2839 15.7526 17.9037 15.4226 17.4824 15.1391C17.3207 15.0303 17.1528 14.9283 16.9789 14.8338C16.9784 14.8336 16.978 14.8333 16.9775 14.8331C16.974 14.8311 16.9704 14.8292 16.9669 14.8273C16.8255 14.7509 16.68 14.6795 16.5305 14.6135C16.4978 14.6135 16.4488 14.597 16.3997 14.5805C16.3507 14.564 16.3017 14.5475 16.269 14.5475C15.3709 14.2454 14.6083 13.67 14.067 12.9342C14.0432 12.9019 14.0199 12.8692 13.9969 12.8363C13.969 12.7961 13.9417 12.7556 13.9151 12.7146C13.8928 12.6803 13.871 12.6457 13.8497 12.6108C13.6785 12.331 13.5375 12.0325 13.4306 11.7206C13.2924 11.3175 13.2113 10.892 13.1959 10.4555L13.1959 10.1915ZM10.1687 11.7987C10.0874 11.3973 10.038 10.9859 10.0232 10.5677L10.0212 10.5116L10.0212 10.1042L10.026 10.017C10.0704 9.21124 10.2434 7.80282 10.8578 6.36786C11.4729 4.9312 12.654 3.20898 14.8193 2.32376C17.5232 1.10199 20.7196 1.40985 23.1373 3.17715C25.2774 4.63737 26.8593 6.7753 27.5169 9.33572C27.75 10.2432 27.9115 11.1591 28.0087 12.0718C28.7805 11.8807 29.5867 11.7975 30.4075 11.8349L30.9561 11.8349L31.253 11.892C32.9347 12.2153 36.1059 13.2681 37.3821 16.5707C38.5801 19.2926 38.2467 22.4554 36.5569 24.9003C35.1343 27.0741 32.9075 28.6476 30.4112 29.3009C29.6294 29.5055 28.8331 29.6693 28.0209 29.7802C28.0727 30.054 28.1094 30.3307 28.1306 30.6085L28.1398 30.7289L28.1398 31.0204L28.1329 31.1249C28.1317 31.143 28.1304 31.1624 28.1291 31.183C28.0941 31.7234 28.0017 33.1506 27.4817 34.6473C26.9371 36.2144 25.7768 38.2658 23.3398 39.3113L23.3178 39.3207L23.2957 39.3299C20.5931 40.4412 17.429 40.1779 14.9943 38.4825C12.7404 36.9563 11.3058 34.7172 10.6074 32.3379L10.5963 32.3L10.5862 32.2619C10.357 31.4028 10.1958 30.523 10.1009 29.6329C9.47609 29.7857 8.82619 29.8663 8.16123 29.8663C8.16058 29.8663 8.15936 29.8663 8.15758 29.8663C8.11994 29.8667 7.83303 29.8695 7.50376 29.8141C7.41744 29.7995 7.27376 29.7731 7.09441 29.7204C5.41126 29.4562 2.07196 28.4948 0.714335 25.0643C-0.473422 22.3047 -0.167473 19.2023 1.53883 16.7346C2.9643 14.5566 5.16911 13.0186 7.57848 12.298L7.63119 12.2822L7.68441 12.2683C8.50954 12.0524 9.33674 11.8958 10.1687 11.7987Z" fill="black"/>
</svg>
